<svg xmlns="http://www.w3.org/2000/svg" width="512" height="512" viewBox="0 0 512 512"><title>circle</title><g id="Layer_2" data-name="Layer 2"><g id="circle"><g id="logo"><g id="circle-2" data-name="circle"><circle cx="256" cy="256" r="256" style="fill:#673ab7"/></g><g id="paper"><path d="M226.8,253.47q-9.42,9.49-19.61,18.66Q162.3,312.54,102.4,346.76L245.81,406a645.88,645.88,0,0,0,72.36-47.75,508.78,508.78,0,0,0,52-45.55,443.83,443.83,0,0,0-85-54.17q50.89-51.3,124.4-93.3L266.19,106q-73.5,42-124.4,93.3A443.82,443.82,0,0,1,226.8,253.47Z" style="fill:#fff"/><path id="shade" d="M370.21,312.7a443.83,443.83,0,0,0-85-54.17L141.79,199.3a443.82,443.82,0,0,1,85,54.17Z" style="fill:#dfdfdf"/></g></g></g></g></svg>