<svg id="logo-circle" xmlns="http://www.w3.org/2000/svg" xmlns:xlink="http://www.w3.org/1999/xlink" viewBox="0 0 512 512"><defs><clipPath id="clip-path"><circle id="circle" cx="256" cy="256" r="256" style="fill:none"/></clipPath><linearGradient id="linear-gradient" y1="512" x2="512" gradientUnits="userSpaceOnUse"><stop offset="0" stop-color="#ac1e27"/><stop offset="1" stop-color="#fd1847"/></linearGradient></defs><title>circle</title><g style="clip-path:url(#clip-path)"><rect id="square-background" width="512" height="512" style="fill:url(#linear-gradient)"/></g><g id="paper"><path id="shape" d="M226.8,253.47q-9.42,9.48-19.61,18.66-44.88,40.41-104.79,74.63L245.81,406a646.44,646.44,0,0,0,72.37-47.75,508.76,508.76,0,0,0,52-45.55,444.16,444.16,0,0,0-85-54.17q50.9-51.3,124.4-93.29L266.19,106q-73.5,42-124.4,93.3A443.67,443.67,0,0,1,226.8,253.47Z" style="fill:#fff"/><path id="shade" d="M370.21,312.7a444.16,444.16,0,0,0-85-54.17L141.79,199.3a443.67,443.67,0,0,1,85,54.17Z" style="fill:#ede4e4"/></g></svg>