<svg xmlns="http://www.w3.org/2000/svg" width="512" height="500" viewBox="0 0 512 500"><title>paper</title><g id="Layer_2" data-name="Layer 2"><g id="paper"><g id="paper-2" data-name="paper"><path d="M207.33,245.78q-15.69,15.82-32.68,31.11Q99.84,344.23,0,401.27L239,500a1076.47,1076.47,0,0,0,120.61-79.58,848,848,0,0,0,86.72-75.92,739.71,739.71,0,0,0-141.67-90.28Q389.49,168.72,512,98.73L273,0Q150.47,70,65.66,155.5A739.71,739.71,0,0,1,207.33,245.78Z" style="fill:#fff"/><path id="shade" d="M446.34,344.5a739.71,739.71,0,0,0-141.67-90.28l-239-98.73a739.71,739.71,0,0,1,141.67,90.28Z" style="fill:#dfdfdf"/></g></g></g></svg>