<svg xmlns="http://www.w3.org/2000/svg" viewBox="0 0 512 500"><title>logo-paper</title><g id="logo-paper"><g id="paper"><path id="shape" d="M207.33,245.78q-15.71,15.81-32.68,31.1Q99.85,344.23,0,401.27L239,500a1076.52,1076.52,0,0,0,120.61-79.58,846.49,846.49,0,0,0,86.71-75.92,740.1,740.1,0,0,0-141.67-90.28Q389.5,168.72,512,98.73L273,0Q150.48,70,65.66,155.5A739.44,739.44,0,0,1,207.33,245.78Z" style="fill:#fff"/><path id="shade" d="M446.34,344.5a740.1,740.1,0,0,0-141.67-90.28l-239-98.72a739.44,739.44,0,0,1,141.67,90.28Z" style="fill:#e7e7e7"/></g></g></svg>