<svg xmlns="http://www.w3.org/2000/svg" viewBox="0 0 512 512"><title>logo-paper-square</title><g id="logo-paper"><g id="paper"><path id="shape" d="M207.33,251.78q-15.71,15.81-32.68,31.1Q99.85,350.23,0,407.27L239,506a1076.52,1076.52,0,0,0,120.61-79.58,846.49,846.49,0,0,0,86.71-75.92,740.1,740.1,0,0,0-141.67-90.28Q389.5,174.72,512,104.73L273,6Q150.48,76,65.66,161.5A739.44,739.44,0,0,1,207.33,251.78Z" style="fill:#fff"/><path id="shade" d="M446.34,350.5a740.1,740.1,0,0,0-141.67-90.28l-239-98.72a739.44,739.44,0,0,1,141.67,90.28Z" style="fill:#e7e7e7"/></g></g></svg>